<mxfile host="app.diagrams.net" agent="Mozilla/5.0 (Macintosh; Intel Mac OS X 10_15_7) AppleWebKit/605.1.15 (KHTML, like Gecko) Version/18.2 Safari/605.1.15" version="26.1.1" pages="2">
  <diagram name="logical" id="a28eS1VH717H-jFmyvzE">
    <mxGraphModel dx="714" dy="424" grid="1" gridSize="10" guides="1" tooltips="1" connect="1" arrows="1" fold="1" page="1" pageScale="1" pageWidth="1654" pageHeight="1169" math="0" shadow="0">
      <root>
        <mxCell id="0" />
        <mxCell id="1" parent="0" />
        <mxCell id="hlD-h25UODXzc8JkNynH-4" style="edgeStyle=orthogonalEdgeStyle;rounded=0;orthogonalLoop=1;jettySize=auto;html=1;exitX=1;exitY=0.5;exitDx=0;exitDy=0;" parent="1" source="QOSQDGM2Vr5bahmL-OwR-1" target="QOSQDGM2Vr5bahmL-OwR-3" edge="1">
          <mxGeometry relative="1" as="geometry" />
        </mxCell>
        <mxCell id="QOSQDGM2Vr5bahmL-OwR-1" value="Gateway&amp;nbsp;" style="rounded=0;whiteSpace=wrap;html=1;" parent="1" vertex="1">
          <mxGeometry x="230" y="38" width="120" height="60" as="geometry" />
        </mxCell>
        <mxCell id="N1JyaEXGvSMu6KdcvLRS-1" style="edgeStyle=orthogonalEdgeStyle;rounded=0;orthogonalLoop=1;jettySize=auto;html=1;entryX=0;entryY=0.5;entryDx=0;entryDy=0;" parent="1" source="QOSQDGM2Vr5bahmL-OwR-2" target="QOSQDGM2Vr5bahmL-OwR-1" edge="1">
          <mxGeometry relative="1" as="geometry" />
        </mxCell>
        <mxCell id="QOSQDGM2Vr5bahmL-OwR-2" value="Internet" style="sketch=0;outlineConnect=0;fontColor=#232F3E;gradientColor=none;fillColor=#232F3D;strokeColor=none;dashed=0;verticalLabelPosition=bottom;verticalAlign=top;align=center;html=1;fontSize=12;fontStyle=0;aspect=fixed;pointerEvents=1;shape=mxgraph.aws4.internet_alt22;" parent="1" vertex="1">
          <mxGeometry x="40" y="43" width="50" height="50" as="geometry" />
        </mxCell>
        <mxCell id="hlD-h25UODXzc8JkNynH-5" value="publish" style="edgeStyle=orthogonalEdgeStyle;rounded=0;orthogonalLoop=1;jettySize=auto;html=1;exitX=0.5;exitY=1;exitDx=0;exitDy=0;" parent="1" source="QOSQDGM2Vr5bahmL-OwR-3" target="QOSQDGM2Vr5bahmL-OwR-8" edge="1">
          <mxGeometry relative="1" as="geometry" />
        </mxCell>
        <mxCell id="QOSQDGM2Vr5bahmL-OwR-3" value="Network Mirror" style="rounded=1;whiteSpace=wrap;html=1;" parent="1" vertex="1">
          <mxGeometry x="550" y="38" width="120" height="60" as="geometry" />
        </mxCell>
        <mxCell id="QOSQDGM2Vr5bahmL-OwR-8" value="Message Broker" style="rounded=1;whiteSpace=wrap;html=1;fillColor=none;labelPosition=left;verticalLabelPosition=bottom;align=right;verticalAlign=top;fontStyle=1;" parent="1" vertex="1">
          <mxGeometry x="370" y="160" width="560" height="90" as="geometry" />
        </mxCell>
        <mxCell id="QOSQDGM2Vr5bahmL-OwR-10" value="C&amp;amp;C&amp;nbsp;" style="strokeWidth=2;html=1;shape=mxgraph.flowchart.direct_data;whiteSpace=wrap;" parent="1" vertex="1">
          <mxGeometry x="570" y="190" width="120" height="30" as="geometry" />
        </mxCell>
        <mxCell id="QOSQDGM2Vr5bahmL-OwR-11" value="Network Forense" style="strokeWidth=2;html=1;shape=mxgraph.flowchart.direct_data;whiteSpace=wrap;" parent="1" vertex="1">
          <mxGeometry x="720" y="190" width="120" height="30" as="geometry" />
        </mxCell>
        <mxCell id="hlD-h25UODXzc8JkNynH-8" style="edgeStyle=orthogonalEdgeStyle;rounded=0;orthogonalLoop=1;jettySize=auto;html=1;exitX=0.5;exitY=1;exitDx=0;exitDy=0;exitPerimeter=0;entryX=0.25;entryY=0;entryDx=0;entryDy=0;" parent="1" source="QOSQDGM2Vr5bahmL-OwR-12" target="QOSQDGM2Vr5bahmL-OwR-18" edge="1">
          <mxGeometry relative="1" as="geometry" />
        </mxCell>
        <mxCell id="QOSQDGM2Vr5bahmL-OwR-12" value="File Analisys" style="strokeWidth=2;html=1;shape=mxgraph.flowchart.direct_data;whiteSpace=wrap;" parent="1" vertex="1">
          <mxGeometry x="410" y="190" width="120" height="30" as="geometry" />
        </mxCell>
        <mxCell id="QOSQDGM2Vr5bahmL-OwR-13" value="Users" style="outlineConnect=0;dashed=0;verticalLabelPosition=top;verticalAlign=bottom;align=center;shape=mxgraph.aws3.users;fillColor=#D2D3D3;gradientColor=none;html=1;labelPosition=center;" parent="1" vertex="1">
          <mxGeometry x="164" y="1037" width="86" height="63" as="geometry" />
        </mxCell>
        <mxCell id="QOSQDGM2Vr5bahmL-OwR-18" value="File Analysis" style="rounded=1;whiteSpace=wrap;html=1;fontStyle=0" parent="1" vertex="1">
          <mxGeometry x="440" y="350" width="120" height="60" as="geometry" />
        </mxCell>
        <mxCell id="QOSQDGM2Vr5bahmL-OwR-19" value="Comand &amp;amp; Control" style="rounded=1;whiteSpace=wrap;html=1;" parent="1" vertex="1">
          <mxGeometry x="590" y="350" width="110" height="60" as="geometry" />
        </mxCell>
        <mxCell id="QOSQDGM2Vr5bahmL-OwR-20" value="Network Forense" style="rounded=1;whiteSpace=wrap;html=1;" parent="1" vertex="1">
          <mxGeometry x="740" y="350" width="110" height="60" as="geometry" />
        </mxCell>
        <mxCell id="QOSQDGM2Vr5bahmL-OwR-23" value="&lt;b&gt;Message Broker&lt;/b&gt;" style="rounded=1;whiteSpace=wrap;html=1;fillColor=none;labelPosition=center;verticalLabelPosition=bottom;align=center;verticalAlign=top;arcSize=10;" parent="1" vertex="1">
          <mxGeometry x="450" y="580" width="390" height="60" as="geometry" />
        </mxCell>
        <mxCell id="QOSQDGM2Vr5bahmL-OwR-24" value="" style="strokeWidth=2;html=1;shape=mxgraph.flowchart.direct_data;whiteSpace=wrap;" parent="1" vertex="1">
          <mxGeometry x="570" y="600" width="120" height="25" as="geometry" />
        </mxCell>
        <mxCell id="QOSQDGM2Vr5bahmL-OwR-27" value="ACI" style="rounded=1;whiteSpace=wrap;html=1;" parent="1" vertex="1">
          <mxGeometry x="550" y="730" width="170" height="50" as="geometry" />
        </mxCell>
        <mxCell id="hlD-h25UODXzc8JkNynH-18" value="" style="edgeStyle=orthogonalEdgeStyle;rounded=0;orthogonalLoop=1;jettySize=auto;html=1;entryX=0.25;entryY=1;entryDx=0;entryDy=0;endArrow=none;startFill=1;startArrow=classic;" parent="1" edge="1">
          <mxGeometry relative="1" as="geometry">
            <Array as="points">
              <mxPoint x="677.5" y="780" />
            </Array>
            <mxPoint x="677.5" y="840" as="sourcePoint" />
            <mxPoint x="650" y="780" as="targetPoint" />
          </mxGeometry>
        </mxCell>
        <mxCell id="hlD-h25UODXzc8JkNynH-21" value="response" style="edgeLabel;html=1;align=center;verticalAlign=middle;resizable=0;points=[];" parent="hlD-h25UODXzc8JkNynH-18" vertex="1" connectable="0">
          <mxGeometry x="-0.4514" relative="1" as="geometry">
            <mxPoint y="-6" as="offset" />
          </mxGeometry>
        </mxCell>
        <mxCell id="QOSQDGM2Vr5bahmL-OwR-28" value="Backend Portal" style="rounded=1;whiteSpace=wrap;html=1;" parent="1" vertex="1">
          <mxGeometry x="550" y="840" width="170" height="60" as="geometry" />
        </mxCell>
        <mxCell id="QOSQDGM2Vr5bahmL-OwR-36" value="publish" style="edgeStyle=orthogonalEdgeStyle;rounded=0;orthogonalLoop=1;jettySize=auto;html=1;exitX=0.445;exitY=1.05;exitDx=0;exitDy=0;exitPerimeter=0;" parent="1" source="QOSQDGM2Vr5bahmL-OwR-19" edge="1">
          <mxGeometry relative="1" as="geometry">
            <mxPoint x="640" y="580" as="targetPoint" />
            <Array as="points">
              <mxPoint x="640" y="413" />
            </Array>
            <mxPoint x="690" y="450" as="sourcePoint" />
          </mxGeometry>
        </mxCell>
        <mxCell id="QOSQDGM2Vr5bahmL-OwR-37" value="publish" style="edgeStyle=orthogonalEdgeStyle;rounded=0;orthogonalLoop=1;jettySize=auto;html=1;exitX=0.625;exitY=0.967;exitDx=0;exitDy=0;entryX=0.175;entryY=-0.05;entryDx=0;entryDy=0;entryPerimeter=0;exitPerimeter=0;" parent="1" source="QOSQDGM2Vr5bahmL-OwR-18" target="QOSQDGM2Vr5bahmL-OwR-23" edge="1">
          <mxGeometry relative="1" as="geometry">
            <mxPoint x="520" y="370" as="sourcePoint" />
            <mxPoint x="520" y="529.98" as="targetPoint" />
          </mxGeometry>
        </mxCell>
        <mxCell id="QOSQDGM2Vr5bahmL-OwR-38" value="publish" style="edgeStyle=orthogonalEdgeStyle;rounded=0;orthogonalLoop=1;jettySize=auto;html=1;entryX=0.872;entryY=0;entryDx=0;entryDy=0;entryPerimeter=0;" parent="1" target="QOSQDGM2Vr5bahmL-OwR-23" edge="1">
          <mxGeometry relative="1" as="geometry">
            <mxPoint x="790" y="410" as="sourcePoint" />
            <mxPoint x="790.26" y="558.02" as="targetPoint" />
          </mxGeometry>
        </mxCell>
        <mxCell id="hlD-h25UODXzc8JkNynH-9" style="edgeStyle=orthogonalEdgeStyle;rounded=0;orthogonalLoop=1;jettySize=auto;html=1;exitX=0.5;exitY=1;exitDx=0;exitDy=0;exitPerimeter=0;entryX=0.364;entryY=-0.067;entryDx=0;entryDy=0;entryPerimeter=0;" parent="1" source="QOSQDGM2Vr5bahmL-OwR-10" target="QOSQDGM2Vr5bahmL-OwR-19" edge="1">
          <mxGeometry relative="1" as="geometry" />
        </mxCell>
        <mxCell id="hlD-h25UODXzc8JkNynH-13" style="edgeStyle=orthogonalEdgeStyle;rounded=0;orthogonalLoop=1;jettySize=auto;html=1;entryX=0.468;entryY=0;entryDx=0;entryDy=0;entryPerimeter=0;" parent="1" source="QOSQDGM2Vr5bahmL-OwR-24" target="QOSQDGM2Vr5bahmL-OwR-27" edge="1">
          <mxGeometry relative="1" as="geometry" />
        </mxCell>
        <mxCell id="hlD-h25UODXzc8JkNynH-16" style="edgeStyle=orthogonalEdgeStyle;rounded=0;orthogonalLoop=1;jettySize=auto;html=1;entryX=0;entryY=0.5;entryDx=0;entryDy=0;endArrow=none;startFill=0;" parent="1" source="hlD-h25UODXzc8JkNynH-14" target="QOSQDGM2Vr5bahmL-OwR-27" edge="1">
          <mxGeometry relative="1" as="geometry" />
        </mxCell>
        <mxCell id="hlD-h25UODXzc8JkNynH-14" value="DB" style="outlineConnect=0;dashed=0;verticalLabelPosition=middle;verticalAlign=middle;align=center;html=1;shape=mxgraph.aws3.generic_database;fillColor=#7D7C7C;gradientColor=none;fontSize=16;fontStyle=1;labelPosition=center;" parent="1" vertex="1">
          <mxGeometry x="445.25" y="722.75" width="49.5" height="64.5" as="geometry" />
        </mxCell>
        <mxCell id="hlD-h25UODXzc8JkNynH-17" value="" style="edgeStyle=orthogonalEdgeStyle;rounded=0;orthogonalLoop=1;jettySize=auto;html=1;" parent="1" source="QOSQDGM2Vr5bahmL-OwR-28" target="QOSQDGM2Vr5bahmL-OwR-27" edge="1">
          <mxGeometry relative="1" as="geometry">
            <Array as="points">
              <mxPoint x="610" y="820" />
              <mxPoint x="610" y="820" />
            </Array>
          </mxGeometry>
        </mxCell>
        <mxCell id="hlD-h25UODXzc8JkNynH-22" value="request" style="edgeLabel;html=1;align=center;verticalAlign=middle;resizable=0;points=[];" parent="hlD-h25UODXzc8JkNynH-17" vertex="1" connectable="0">
          <mxGeometry x="-0.0667" relative="1" as="geometry">
            <mxPoint as="offset" />
          </mxGeometry>
        </mxCell>
        <mxCell id="hlD-h25UODXzc8JkNynH-23" style="edgeStyle=orthogonalEdgeStyle;rounded=0;orthogonalLoop=1;jettySize=auto;html=1;entryX=-0.005;entryY=0.4;entryDx=0;entryDy=0;entryPerimeter=0;" parent="1" source="QOSQDGM2Vr5bahmL-OwR-13" target="QOSQDGM2Vr5bahmL-OwR-30" edge="1">
          <mxGeometry relative="1" as="geometry">
            <Array as="points">
              <mxPoint x="310" y="1064" />
              <mxPoint x="310" y="1064" />
            </Array>
          </mxGeometry>
        </mxCell>
        <mxCell id="N1JyaEXGvSMu6KdcvLRS-2" style="edgeStyle=orthogonalEdgeStyle;rounded=0;orthogonalLoop=1;jettySize=auto;html=1;endArrow=none;startFill=0;entryX=0;entryY=0.5;entryDx=0;entryDy=0;" parent="1" source="N1JyaEXGvSMu6KdcvLRS-3" target="QOSQDGM2Vr5bahmL-OwR-28" edge="1">
          <mxGeometry relative="1" as="geometry">
            <mxPoint x="540" y="860" as="targetPoint" />
          </mxGeometry>
        </mxCell>
        <mxCell id="N1JyaEXGvSMu6KdcvLRS-3" value="DB" style="outlineConnect=0;dashed=0;verticalLabelPosition=middle;verticalAlign=middle;align=center;html=1;shape=mxgraph.aws3.generic_database;fillColor=#7D7C7C;gradientColor=none;labelPosition=center;fontSize=16;fontStyle=1" parent="1" vertex="1">
          <mxGeometry x="450" y="837.75" width="49.5" height="64.5" as="geometry" />
        </mxCell>
        <mxCell id="N1JyaEXGvSMu6KdcvLRS-4" style="edgeStyle=orthogonalEdgeStyle;rounded=0;orthogonalLoop=1;jettySize=auto;html=1;exitX=0.5;exitY=1;exitDx=0;exitDy=0;exitPerimeter=0;entryX=0.364;entryY=-0.067;entryDx=0;entryDy=0;entryPerimeter=0;" parent="1" edge="1">
          <mxGeometry relative="1" as="geometry">
            <mxPoint x="790" y="220" as="sourcePoint" />
            <mxPoint x="790" y="306" as="targetPoint" />
          </mxGeometry>
        </mxCell>
        <mxCell id="N1JyaEXGvSMu6KdcvLRS-5" value="" style="edgeStyle=orthogonalEdgeStyle;rounded=0;orthogonalLoop=1;jettySize=auto;html=1;" parent="1" target="QOSQDGM2Vr5bahmL-OwR-30" edge="1">
          <mxGeometry relative="1" as="geometry">
            <mxPoint x="610" y="1040" as="sourcePoint" />
            <mxPoint x="607.5" y="990" as="targetPoint" />
            <Array as="points">
              <mxPoint x="607.5" y="1050" />
              <mxPoint x="607.5" y="1001" />
            </Array>
          </mxGeometry>
        </mxCell>
        <mxCell id="QOSQDGM2Vr5bahmL-OwR-30" value="Frontend Portal" style="rounded=1;whiteSpace=wrap;html=1;" parent="1" vertex="1">
          <mxGeometry x="470" y="1040" width="370" height="60" as="geometry" />
        </mxCell>
        <mxCell id="N1JyaEXGvSMu6KdcvLRS-6" style="edgeStyle=orthogonalEdgeStyle;rounded=0;orthogonalLoop=1;jettySize=auto;html=1;entryX=0.353;entryY=1.033;entryDx=0;entryDy=0;entryPerimeter=0;" parent="1" source="QOSQDGM2Vr5bahmL-OwR-30" target="QOSQDGM2Vr5bahmL-OwR-28" edge="1">
          <mxGeometry relative="1" as="geometry">
            <Array as="points">
              <mxPoint x="610" y="1000" />
              <mxPoint x="610" y="1000" />
            </Array>
            <mxPoint x="609.625" y="993.8399999999999" as="targetPoint" />
          </mxGeometry>
        </mxCell>
        <mxCell id="N1JyaEXGvSMu6KdcvLRS-9" value="request" style="edgeLabel;html=1;align=center;verticalAlign=middle;resizable=0;points=[];" parent="N1JyaEXGvSMu6KdcvLRS-6" vertex="1" connectable="0">
          <mxGeometry x="-0.0901" relative="1" as="geometry">
            <mxPoint as="offset" />
          </mxGeometry>
        </mxCell>
        <mxCell id="N1JyaEXGvSMu6KdcvLRS-8" style="edgeStyle=orthogonalEdgeStyle;rounded=0;orthogonalLoop=1;jettySize=auto;html=1;entryX=0.541;entryY=0;entryDx=0;entryDy=0;entryPerimeter=0;exitX=0.665;exitY=0.983;exitDx=0;exitDy=0;exitPerimeter=0;" parent="1" source="QOSQDGM2Vr5bahmL-OwR-28" target="QOSQDGM2Vr5bahmL-OwR-30" edge="1">
          <mxGeometry relative="1" as="geometry">
            <Array as="points">
              <mxPoint x="670" y="899" />
            </Array>
            <mxPoint x="670" y="990" as="sourcePoint" />
          </mxGeometry>
        </mxCell>
        <mxCell id="N1JyaEXGvSMu6KdcvLRS-10" value="response" style="edgeLabel;html=1;align=center;verticalAlign=middle;resizable=0;points=[];" parent="N1JyaEXGvSMu6KdcvLRS-8" vertex="1" connectable="0">
          <mxGeometry x="0.16" relative="1" as="geometry">
            <mxPoint as="offset" />
          </mxGeometry>
        </mxCell>
        <mxCell id="CgOhIB995XVI0FI_Uq9t-4" style="edgeStyle=none;curved=1;rounded=0;orthogonalLoop=1;jettySize=auto;html=1;entryX=1;entryY=0.5;entryDx=0;entryDy=0;fontSize=12;startSize=8;endSize=8;" parent="1" source="CgOhIB995XVI0FI_Uq9t-2" target="QOSQDGM2Vr5bahmL-OwR-20" edge="1">
          <mxGeometry relative="1" as="geometry">
            <Array as="points">
              <mxPoint x="1020" y="350" />
            </Array>
          </mxGeometry>
        </mxCell>
        <mxCell id="CgOhIB995XVI0FI_Uq9t-2" value="File Storage" style="strokeWidth=2;html=1;shape=mxgraph.flowchart.database;whiteSpace=wrap;" parent="1" vertex="1">
          <mxGeometry x="930" y="50" width="70" height="57" as="geometry" />
        </mxCell>
        <mxCell id="CgOhIB995XVI0FI_Uq9t-3" style="edgeStyle=none;curved=1;rounded=0;orthogonalLoop=1;jettySize=auto;html=1;exitX=1;exitY=0.5;exitDx=0;exitDy=0;entryX=-0.057;entryY=0.333;entryDx=0;entryDy=0;entryPerimeter=0;fontSize=12;startSize=8;endSize=8;" parent="1" source="QOSQDGM2Vr5bahmL-OwR-3" target="CgOhIB995XVI0FI_Uq9t-2" edge="1">
          <mxGeometry relative="1" as="geometry" />
        </mxCell>
        <mxCell id="2Xc4dj0dTMiZn6rH0uHL-1" value="Detection Sensors" style="rounded=1;whiteSpace=wrap;html=1;fillColor=none;labelPosition=left;verticalLabelPosition=bottom;align=right;verticalAlign=top;fontStyle=1;" parent="1" vertex="1">
          <mxGeometry x="370" y="320" width="560" height="130" as="geometry" />
        </mxCell>
      </root>
    </mxGraphModel>
  </diagram>
  <diagram id="Z7bgDDkQMDf8QLlb8JFn" name="physical">
    <mxGraphModel dx="1748" dy="2048" grid="0" gridSize="10" guides="1" tooltips="1" connect="1" arrows="1" fold="1" page="0" pageScale="1" pageWidth="1654" pageHeight="1169" math="0" shadow="0">
      <root>
        <mxCell id="0" />
        <mxCell id="1" parent="0" />
        <mxCell id="FTCP2H_QkPKJNNPyXK-4-2" value="" style="outlineConnect=0;dashed=0;verticalLabelPosition=bottom;verticalAlign=top;align=center;html=1;shape=mxgraph.aws3.codecommit;fillColor=#fa6800;fontColor=#000000;strokeColor=#C73500;fontStyle=0" vertex="1" parent="1">
          <mxGeometry x="-678.75" y="-74" width="76.5" height="93" as="geometry" />
        </mxCell>
        <mxCell id="FTCP2H_QkPKJNNPyXK-4-3" value="" style="outlineConnect=0;dashed=0;verticalLabelPosition=bottom;verticalAlign=top;align=center;html=1;shape=mxgraph.aws3.codepipeline;fillColor=#759C3E;gradientColor=none;" vertex="1" parent="1">
          <mxGeometry x="-681" y="148" width="67.5" height="81" as="geometry" />
        </mxCell>
        <mxCell id="FTCP2H_QkPKJNNPyXK-4-14" value="Auto Scaling group" style="points=[[0,0],[0.25,0],[0.5,0],[0.75,0],[1,0],[1,0.25],[1,0.5],[1,0.75],[1,1],[0.75,1],[0.5,1],[0.25,1],[0,1],[0,0.75],[0,0.5],[0,0.25]];outlineConnect=0;gradientColor=none;html=1;whiteSpace=wrap;fontSize=10;fontStyle=0;container=1;pointerEvents=0;collapsible=0;recursiveResize=0;shape=mxgraph.aws4.groupCenter;grIcon=mxgraph.aws4.group_auto_scaling_group;grStroke=1;strokeColor=#D86613;fillColor=none;verticalAlign=top;align=center;fontColor=#D86613;dashed=1;spacingTop=25;" vertex="1" parent="1">
          <mxGeometry x="-128" y="-556" width="153" height="152" as="geometry" />
        </mxCell>
        <mxCell id="FTCP2H_QkPKJNNPyXK-4-15" value="EC2 C&amp;amp;C Sensor" style="points=[[0,0],[0.25,0],[0.5,0],[0.75,0],[1,0],[1,0.25],[1,0.5],[1,0.75],[1,1],[0.75,1],[0.5,1],[0.25,1],[0,1],[0,0.75],[0,0.5],[0,0.25]];outlineConnect=0;gradientColor=none;html=1;whiteSpace=wrap;fontSize=9;fontStyle=1;container=1;pointerEvents=0;collapsible=0;recursiveResize=0;shape=mxgraph.aws4.group;grIcon=mxgraph.aws4.group_ec2_instance_contents;strokeColor=#D86613;fillColor=none;verticalAlign=top;align=left;spacingLeft=30;fontColor=#D86613;dashed=0;" vertex="1" parent="FTCP2H_QkPKJNNPyXK-4-14">
          <mxGeometry x="15" y="52" width="127.25" height="89" as="geometry" />
        </mxCell>
        <mxCell id="FTCP2H_QkPKJNNPyXK-4-16" value="" style="sketch=0;points=[[0,0,0],[0.25,0,0],[0.5,0,0],[0.75,0,0],[1,0,0],[0,1,0],[0.25,1,0],[0.5,1,0],[0.75,1,0],[1,1,0],[0,0.25,0],[0,0.5,0],[0,0.75,0],[1,0.25,0],[1,0.5,0],[1,0.75,0]];outlineConnect=0;fontColor=#232F3E;fillColor=#ED7100;strokeColor=#ffffff;dashed=0;verticalLabelPosition=bottom;verticalAlign=top;align=center;html=1;fontSize=12;fontStyle=0;shape=mxgraph.aws4.resourceIcon;resIcon=mxgraph.aws4.ec2;direction=south;" vertex="1" parent="FTCP2H_QkPKJNNPyXK-4-15">
          <mxGeometry x="79.25" y="33" width="34" height="24" as="geometry" />
        </mxCell>
        <mxCell id="FTCP2H_QkPKJNNPyXK-4-17" value="" style="sketch=0;outlineConnect=0;fontColor=#232F3E;gradientColor=none;fillColor=#ED7100;strokeColor=none;dashed=0;verticalLabelPosition=bottom;verticalAlign=top;align=center;html=1;fontSize=12;fontStyle=0;pointerEvents=1;shape=mxgraph.aws4.container_2;aspect=fixed;" vertex="1" parent="FTCP2H_QkPKJNNPyXK-4-15">
          <mxGeometry x="27.25" y="33" width="35.61" height="23" as="geometry" />
        </mxCell>
        <mxCell id="FTCP2H_QkPKJNNPyXK-4-26" value="Auto Scaling group" style="points=[[0,0],[0.25,0],[0.5,0],[0.75,0],[1,0],[1,0.25],[1,0.5],[1,0.75],[1,1],[0.75,1],[0.5,1],[0.25,1],[0,1],[0,0.75],[0,0.5],[0,0.25]];outlineConnect=0;gradientColor=none;html=1;whiteSpace=wrap;fontSize=10;fontStyle=0;container=1;pointerEvents=0;collapsible=0;recursiveResize=0;shape=mxgraph.aws4.groupCenter;grIcon=mxgraph.aws4.group_auto_scaling_group;grStroke=1;strokeColor=#D86613;fillColor=none;verticalAlign=top;align=center;fontColor=#D86613;dashed=1;spacingTop=25;" vertex="1" parent="1">
          <mxGeometry x="-128" y="-386" width="153" height="152" as="geometry" />
        </mxCell>
        <mxCell id="FTCP2H_QkPKJNNPyXK-4-27" value="EC2 Network Forensics Sensor" style="points=[[0,0],[0.25,0],[0.5,0],[0.75,0],[1,0],[1,0.25],[1,0.5],[1,0.75],[1,1],[0.75,1],[0.5,1],[0.25,1],[0,1],[0,0.75],[0,0.5],[0,0.25]];outlineConnect=0;gradientColor=none;html=1;whiteSpace=wrap;fontSize=9;fontStyle=1;container=1;pointerEvents=0;collapsible=0;recursiveResize=0;shape=mxgraph.aws4.group;grIcon=mxgraph.aws4.group_ec2_instance_contents;strokeColor=#D86613;fillColor=none;verticalAlign=top;align=left;spacingLeft=30;fontColor=#D86613;dashed=0;" vertex="1" parent="FTCP2H_QkPKJNNPyXK-4-26">
          <mxGeometry x="15" y="52" width="127.25" height="89" as="geometry" />
        </mxCell>
        <mxCell id="FTCP2H_QkPKJNNPyXK-4-28" value="" style="sketch=0;points=[[0,0,0],[0.25,0,0],[0.5,0,0],[0.75,0,0],[1,0,0],[0,1,0],[0.25,1,0],[0.5,1,0],[0.75,1,0],[1,1,0],[0,0.25,0],[0,0.5,0],[0,0.75,0],[1,0.25,0],[1,0.5,0],[1,0.75,0]];outlineConnect=0;fontColor=#232F3E;fillColor=#ED7100;strokeColor=#ffffff;dashed=0;verticalLabelPosition=bottom;verticalAlign=top;align=center;html=1;fontSize=12;fontStyle=0;shape=mxgraph.aws4.resourceIcon;resIcon=mxgraph.aws4.ec2;direction=south;" vertex="1" parent="FTCP2H_QkPKJNNPyXK-4-27">
          <mxGeometry x="79.25" y="33" width="34" height="24" as="geometry" />
        </mxCell>
        <mxCell id="FTCP2H_QkPKJNNPyXK-4-29" value="" style="sketch=0;outlineConnect=0;fontColor=#232F3E;gradientColor=none;fillColor=#ED7100;strokeColor=none;dashed=0;verticalLabelPosition=bottom;verticalAlign=top;align=center;html=1;fontSize=12;fontStyle=0;pointerEvents=1;shape=mxgraph.aws4.container_2;aspect=fixed;" vertex="1" parent="FTCP2H_QkPKJNNPyXK-4-27">
          <mxGeometry x="27.25" y="33" width="35.61" height="23" as="geometry" />
        </mxCell>
        <mxCell id="FTCP2H_QkPKJNNPyXK-4-30" value="Auto Scaling group" style="points=[[0,0],[0.25,0],[0.5,0],[0.75,0],[1,0],[1,0.25],[1,0.5],[1,0.75],[1,1],[0.75,1],[0.5,1],[0.25,1],[0,1],[0,0.75],[0,0.5],[0,0.25]];outlineConnect=0;gradientColor=none;html=1;whiteSpace=wrap;fontSize=10;fontStyle=0;container=1;pointerEvents=0;collapsible=0;recursiveResize=0;shape=mxgraph.aws4.groupCenter;grIcon=mxgraph.aws4.group_auto_scaling_group;grStroke=1;strokeColor=#D86613;fillColor=none;verticalAlign=top;align=center;fontColor=#D86613;dashed=1;spacingTop=25;" vertex="1" parent="1">
          <mxGeometry x="-128" y="-734" width="153" height="152" as="geometry" />
        </mxCell>
        <mxCell id="FTCP2H_QkPKJNNPyXK-4-31" value="EC2 File Analysis Sensor" style="points=[[0,0],[0.25,0],[0.5,0],[0.75,0],[1,0],[1,0.25],[1,0.5],[1,0.75],[1,1],[0.75,1],[0.5,1],[0.25,1],[0,1],[0,0.75],[0,0.5],[0,0.25]];outlineConnect=0;gradientColor=none;html=1;whiteSpace=wrap;fontSize=9;fontStyle=1;container=1;pointerEvents=0;collapsible=0;recursiveResize=0;shape=mxgraph.aws4.group;grIcon=mxgraph.aws4.group_ec2_instance_contents;strokeColor=#D86613;fillColor=none;verticalAlign=top;align=left;spacingLeft=30;fontColor=#D86613;dashed=0;" vertex="1" parent="FTCP2H_QkPKJNNPyXK-4-30">
          <mxGeometry x="5" y="52" width="143" height="89" as="geometry" />
        </mxCell>
        <mxCell id="FTCP2H_QkPKJNNPyXK-4-32" value="" style="sketch=0;points=[[0,0,0],[0.25,0,0],[0.5,0,0],[0.75,0,0],[1,0,0],[0,1,0],[0.25,1,0],[0.5,1,0],[0.75,1,0],[1,1,0],[0,0.25,0],[0,0.5,0],[0,0.75,0],[1,0.25,0],[1,0.5,0],[1,0.75,0]];outlineConnect=0;fontColor=#232F3E;fillColor=#ED7100;strokeColor=#ffffff;dashed=0;verticalLabelPosition=bottom;verticalAlign=top;align=center;html=1;fontSize=12;fontStyle=0;shape=mxgraph.aws4.resourceIcon;resIcon=mxgraph.aws4.ec2;direction=south;" vertex="1" parent="FTCP2H_QkPKJNNPyXK-4-31">
          <mxGeometry x="79.25" y="33" width="34" height="24" as="geometry" />
        </mxCell>
        <mxCell id="FTCP2H_QkPKJNNPyXK-4-33" value="" style="sketch=0;outlineConnect=0;fontColor=#232F3E;gradientColor=none;fillColor=#ED7100;strokeColor=none;dashed=0;verticalLabelPosition=bottom;verticalAlign=top;align=center;html=1;fontSize=12;fontStyle=0;pointerEvents=1;shape=mxgraph.aws4.container_2;aspect=fixed;" vertex="1" parent="FTCP2H_QkPKJNNPyXK-4-31">
          <mxGeometry x="27.25" y="33" width="35.61" height="23" as="geometry" />
        </mxCell>
        <mxCell id="FTCP2H_QkPKJNNPyXK-4-36" value="" style="sketch=0;outlineConnect=0;fillColor=#fa6800;strokeColor=#C73500;dashed=0;verticalLabelPosition=bottom;verticalAlign=top;align=center;html=1;fontSize=12;fontStyle=0;aspect=fixed;pointerEvents=1;shape=mxgraph.aws4.rds_postgresql_instance;fontColor=#000000;" vertex="1" parent="1">
          <mxGeometry x="480.75" y="-194" width="78" height="78" as="geometry" />
        </mxCell>
        <mxCell id="FTCP2H_QkPKJNNPyXK-4-40" value="" style="rounded=1;arcSize=10;dashed=1;strokeColor=#F59D56;fillColor=none;gradientColor=none;dashPattern=8 4;strokeWidth=2;" vertex="1" parent="1">
          <mxGeometry x="457" y="-215" width="126" height="122" as="geometry" />
        </mxCell>
        <mxCell id="FTCP2H_QkPKJNNPyXK-4-43" value="" style="sketch=0;outlineConnect=0;fontColor=#232F3E;gradientColor=none;fillColor=#E7157B;strokeColor=none;dashed=0;verticalLabelPosition=bottom;verticalAlign=top;align=center;html=1;fontSize=12;fontStyle=0;aspect=fixed;pointerEvents=1;shape=mxgraph.aws4.mq_broker;" vertex="1" parent="1">
          <mxGeometry x="234" y="-467" width="78" height="69" as="geometry" />
        </mxCell>
        <mxCell id="FTCP2H_QkPKJNNPyXK-4-44" value="Amazon S3" style="sketch=0;outlineConnect=0;fontColor=#FF8000;gradientColor=none;strokeColor=#ffffff;fillColor=#FF8000;dashed=0;verticalLabelPosition=middle;verticalAlign=bottom;align=center;html=1;whiteSpace=wrap;fontSize=12;fontStyle=1;spacing=3;shape=mxgraph.aws4.productIcon;prIcon=mxgraph.aws4.s3;" vertex="1" parent="1">
          <mxGeometry x="494" y="-888" width="80" height="100" as="geometry" />
        </mxCell>
        <mxCell id="FTCP2H_QkPKJNNPyXK-4-47" value="Amazon ECS" style="sketch=0;outlineConnect=0;fontColor=#FF8000;gradientColor=none;strokeColor=#ffffff;fillColor=#FF8000;dashed=0;verticalLabelPosition=middle;verticalAlign=bottom;align=center;html=1;whiteSpace=wrap;fontSize=12;fontStyle=1;spacing=3;shape=mxgraph.aws4.productIcon;prIcon=mxgraph.aws4.ecs;" vertex="1" parent="1">
          <mxGeometry x="-675" y="-486" width="80" height="100" as="geometry" />
        </mxCell>
        <mxCell id="FTCP2H_QkPKJNNPyXK-4-48" value="Amazon ECR" style="outlineConnect=0;dashed=0;verticalLabelPosition=bottom;verticalAlign=top;align=center;html=1;shape=mxgraph.aws3.ecr;fillColor=#F58534;gradientColor=none;fontColor=#FF8000;fontStyle=1;fontSize=14;" vertex="1" parent="1">
          <mxGeometry x="-675" y="-300" width="69" height="72" as="geometry" />
        </mxCell>
        <mxCell id="FTCP2H_QkPKJNNPyXK-4-49" value="Auto Scaling group" style="points=[[0,0],[0.25,0],[0.5,0],[0.75,0],[1,0],[1,0.25],[1,0.5],[1,0.75],[1,1],[0.75,1],[0.5,1],[0.25,1],[0,1],[0,0.75],[0,0.5],[0,0.25]];outlineConnect=0;gradientColor=none;html=1;whiteSpace=wrap;fontSize=10;fontStyle=0;container=1;pointerEvents=0;collapsible=0;recursiveResize=0;shape=mxgraph.aws4.groupCenter;grIcon=mxgraph.aws4.group_auto_scaling_group;grStroke=1;strokeColor=#D86613;fillColor=none;verticalAlign=top;align=center;fontColor=#D86613;dashed=1;spacingTop=25;" vertex="1" parent="1">
          <mxGeometry x="196.5" y="-205" width="153" height="152" as="geometry" />
        </mxCell>
        <mxCell id="FTCP2H_QkPKJNNPyXK-4-53" value="EC2 Automatic Center Investigation&amp;nbsp;" style="points=[[0,0],[0.25,0],[0.5,0],[0.75,0],[1,0],[1,0.25],[1,0.5],[1,0.75],[1,1],[0.75,1],[0.5,1],[0.25,1],[0,1],[0,0.75],[0,0.5],[0,0.25]];outlineConnect=0;gradientColor=none;html=1;whiteSpace=wrap;fontSize=9;fontStyle=1;container=1;pointerEvents=0;collapsible=0;recursiveResize=0;shape=mxgraph.aws4.group;grIcon=mxgraph.aws4.group_ec2_instance_contents;strokeColor=#D86613;fillColor=none;verticalAlign=top;align=left;spacingLeft=30;fontColor=#D86613;dashed=0;" vertex="1" parent="1">
          <mxGeometry x="213.5" y="-150" width="127.25" height="89" as="geometry" />
        </mxCell>
        <mxCell id="FTCP2H_QkPKJNNPyXK-4-54" value="" style="sketch=0;points=[[0,0,0],[0.25,0,0],[0.5,0,0],[0.75,0,0],[1,0,0],[0,1,0],[0.25,1,0],[0.5,1,0],[0.75,1,0],[1,1,0],[0,0.25,0],[0,0.5,0],[0,0.75,0],[1,0.25,0],[1,0.5,0],[1,0.75,0]];outlineConnect=0;fontColor=#232F3E;fillColor=#ED7100;strokeColor=#ffffff;dashed=0;verticalLabelPosition=bottom;verticalAlign=top;align=center;html=1;fontSize=12;fontStyle=0;shape=mxgraph.aws4.resourceIcon;resIcon=mxgraph.aws4.ec2;direction=south;" vertex="1" parent="FTCP2H_QkPKJNNPyXK-4-53">
          <mxGeometry x="79.25" y="33" width="34" height="24" as="geometry" />
        </mxCell>
        <mxCell id="FTCP2H_QkPKJNNPyXK-4-55" value="" style="sketch=0;outlineConnect=0;fontColor=#232F3E;gradientColor=none;fillColor=#ED7100;strokeColor=none;dashed=0;verticalLabelPosition=bottom;verticalAlign=top;align=center;html=1;fontSize=12;fontStyle=0;pointerEvents=1;shape=mxgraph.aws4.container_2;aspect=fixed;" vertex="1" parent="FTCP2H_QkPKJNNPyXK-4-53">
          <mxGeometry x="27.25" y="33" width="35.61" height="23" as="geometry" />
        </mxCell>
        <mxCell id="FTCP2H_QkPKJNNPyXK-4-56" style="edgeStyle=none;curved=1;rounded=0;orthogonalLoop=1;jettySize=auto;html=1;exitX=0;exitY=0;exitDx=0;exitDy=0;fontSize=12;startSize=8;endSize=8;" edge="1" parent="1">
          <mxGeometry relative="1" as="geometry">
            <mxPoint x="242" y="-720" as="sourcePoint" />
            <mxPoint x="242" y="-720" as="targetPoint" />
          </mxGeometry>
        </mxCell>
        <mxCell id="FTCP2H_QkPKJNNPyXK-4-57" style="edgeStyle=none;curved=1;rounded=0;orthogonalLoop=1;jettySize=auto;html=1;exitX=1;exitY=1;exitDx=0;exitDy=0;fontSize=12;startSize=8;endSize=8;" edge="1" parent="1">
          <mxGeometry relative="1" as="geometry">
            <mxPoint x="441.5" y="-520.5" as="sourcePoint" />
            <mxPoint x="441.5" y="-520.5" as="targetPoint" />
          </mxGeometry>
        </mxCell>
        <mxCell id="FTCP2H_QkPKJNNPyXK-4-58" value="EC2 Cyber Security Operation Core&amp;nbsp;" style="points=[[0,0],[0.25,0],[0.5,0],[0.75,0],[1,0],[1,0.25],[1,0.5],[1,0.75],[1,1],[0.75,1],[0.5,1],[0.25,1],[0,1],[0,0.75],[0,0.5],[0,0.25]];outlineConnect=0;gradientColor=none;html=1;whiteSpace=wrap;fontSize=9;fontStyle=1;container=1;pointerEvents=0;collapsible=0;recursiveResize=0;shape=mxgraph.aws4.group;grIcon=mxgraph.aws4.group_ec2_instance_contents;strokeColor=#D86613;fillColor=none;verticalAlign=top;align=left;spacingLeft=30;fontColor=#D86613;dashed=0;" vertex="1" parent="1">
          <mxGeometry x="213.5" y="3" width="127.25" height="89" as="geometry" />
        </mxCell>
        <mxCell id="FTCP2H_QkPKJNNPyXK-4-59" value="" style="sketch=0;points=[[0,0,0],[0.25,0,0],[0.5,0,0],[0.75,0,0],[1,0,0],[0,1,0],[0.25,1,0],[0.5,1,0],[0.75,1,0],[1,1,0],[0,0.25,0],[0,0.5,0],[0,0.75,0],[1,0.25,0],[1,0.5,0],[1,0.75,0]];outlineConnect=0;fontColor=#232F3E;fillColor=#ED7100;strokeColor=#ffffff;dashed=0;verticalLabelPosition=bottom;verticalAlign=top;align=center;html=1;fontSize=12;fontStyle=0;shape=mxgraph.aws4.resourceIcon;resIcon=mxgraph.aws4.ec2;direction=south;" vertex="1" parent="FTCP2H_QkPKJNNPyXK-4-58">
          <mxGeometry x="79.25" y="33" width="34" height="24" as="geometry" />
        </mxCell>
        <mxCell id="FTCP2H_QkPKJNNPyXK-4-60" value="" style="sketch=0;outlineConnect=0;fontColor=#232F3E;gradientColor=none;fillColor=#ED7100;strokeColor=none;dashed=0;verticalLabelPosition=bottom;verticalAlign=top;align=center;html=1;fontSize=12;fontStyle=0;pointerEvents=1;shape=mxgraph.aws4.container_2;aspect=fixed;" vertex="1" parent="FTCP2H_QkPKJNNPyXK-4-58">
          <mxGeometry x="27.25" y="33" width="35.61" height="23" as="geometry" />
        </mxCell>
        <mxCell id="FTCP2H_QkPKJNNPyXK-4-61" value="EC2 Network Mirror" style="points=[[0,0],[0.25,0],[0.5,0],[0.75,0],[1,0],[1,0.25],[1,0.5],[1,0.75],[1,1],[0.75,1],[0.5,1],[0.25,1],[0,1],[0,0.75],[0,0.5],[0,0.25]];outlineConnect=0;gradientColor=none;html=1;whiteSpace=wrap;fontSize=9;fontStyle=1;container=1;pointerEvents=0;collapsible=0;recursiveResize=0;shape=mxgraph.aws4.group;grIcon=mxgraph.aws4.group_ec2_instance_contents;strokeColor=#D86613;fillColor=none;verticalAlign=top;align=left;spacingLeft=30;fontColor=#D86613;dashed=0;" vertex="1" parent="1">
          <mxGeometry x="193" y="-888" width="127.25" height="89" as="geometry" />
        </mxCell>
        <mxCell id="FTCP2H_QkPKJNNPyXK-4-62" value="" style="sketch=0;points=[[0,0,0],[0.25,0,0],[0.5,0,0],[0.75,0,0],[1,0,0],[0,1,0],[0.25,1,0],[0.5,1,0],[0.75,1,0],[1,1,0],[0,0.25,0],[0,0.5,0],[0,0.75,0],[1,0.25,0],[1,0.5,0],[1,0.75,0]];outlineConnect=0;fontColor=#232F3E;fillColor=#ED7100;strokeColor=#ffffff;dashed=0;verticalLabelPosition=bottom;verticalAlign=top;align=center;html=1;fontSize=12;fontStyle=0;shape=mxgraph.aws4.resourceIcon;resIcon=mxgraph.aws4.ec2;direction=south;" vertex="1" parent="FTCP2H_QkPKJNNPyXK-4-61">
          <mxGeometry x="79.25" y="33" width="34" height="24" as="geometry" />
        </mxCell>
        <mxCell id="FTCP2H_QkPKJNNPyXK-4-63" value="" style="sketch=0;outlineConnect=0;fontColor=#232F3E;gradientColor=none;fillColor=#ED7100;strokeColor=none;dashed=0;verticalLabelPosition=bottom;verticalAlign=top;align=center;html=1;fontSize=12;fontStyle=0;pointerEvents=1;shape=mxgraph.aws4.container_2;aspect=fixed;" vertex="1" parent="FTCP2H_QkPKJNNPyXK-4-61">
          <mxGeometry x="27.25" y="33" width="35.61" height="23" as="geometry" />
        </mxCell>
        <mxCell id="FTCP2H_QkPKJNNPyXK-4-64" value="EC2 Cyber Security Operation Portal&amp;nbsp;" style="points=[[0,0],[0.25,0],[0.5,0],[0.75,0],[1,0],[1,0.25],[1,0.5],[1,0.75],[1,1],[0.75,1],[0.5,1],[0.25,1],[0,1],[0,0.75],[0,0.5],[0,0.25]];outlineConnect=0;gradientColor=none;html=1;whiteSpace=wrap;fontSize=9;fontStyle=1;container=1;pointerEvents=0;collapsible=0;recursiveResize=0;shape=mxgraph.aws4.group;grIcon=mxgraph.aws4.group_ec2_instance_contents;strokeColor=#D86613;fillColor=none;verticalAlign=top;align=left;spacingLeft=30;fontColor=#D86613;dashed=0;" vertex="1" parent="1">
          <mxGeometry x="-77" width="127.25" height="89" as="geometry" />
        </mxCell>
        <mxCell id="FTCP2H_QkPKJNNPyXK-4-65" value="" style="sketch=0;points=[[0,0,0],[0.25,0,0],[0.5,0,0],[0.75,0,0],[1,0,0],[0,1,0],[0.25,1,0],[0.5,1,0],[0.75,1,0],[1,1,0],[0,0.25,0],[0,0.5,0],[0,0.75,0],[1,0.25,0],[1,0.5,0],[1,0.75,0]];outlineConnect=0;fontColor=#232F3E;fillColor=#ED7100;strokeColor=#ffffff;dashed=0;verticalLabelPosition=bottom;verticalAlign=top;align=center;html=1;fontSize=12;fontStyle=0;shape=mxgraph.aws4.resourceIcon;resIcon=mxgraph.aws4.ec2;direction=south;" vertex="1" parent="FTCP2H_QkPKJNNPyXK-4-64">
          <mxGeometry x="79.25" y="33" width="34" height="24" as="geometry" />
        </mxCell>
        <mxCell id="FTCP2H_QkPKJNNPyXK-4-66" value="" style="sketch=0;outlineConnect=0;fontColor=#232F3E;gradientColor=none;fillColor=#ED7100;strokeColor=none;dashed=0;verticalLabelPosition=bottom;verticalAlign=top;align=center;html=1;fontSize=12;fontStyle=0;pointerEvents=1;shape=mxgraph.aws4.container_2;aspect=fixed;" vertex="1" parent="FTCP2H_QkPKJNNPyXK-4-64">
          <mxGeometry x="27.25" y="33" width="35.61" height="23" as="geometry" />
        </mxCell>
        <mxCell id="FTCP2H_QkPKJNNPyXK-4-67" value="" style="sketch=0;outlineConnect=0;fontColor=#232F3E;gradientColor=none;fillColor=#232F3D;strokeColor=none;dashed=0;verticalLabelPosition=bottom;verticalAlign=top;align=center;html=1;fontSize=12;fontStyle=0;aspect=fixed;pointerEvents=1;shape=mxgraph.aws4.internet_alt22;" vertex="1" parent="1">
          <mxGeometry x="-567" y="-923" width="78" height="78" as="geometry" />
        </mxCell>
        <mxCell id="VFk-ePLD4UC4l5shMS_P-1" value="" style="shape=mxgraph.cisco.hubs_and_gateways.generic_gateway;html=1;pointerEvents=1;dashed=0;fillColor=#036897;strokeColor=#ffffff;strokeWidth=2;verticalLabelPosition=bottom;verticalAlign=top;align=center;outlineConnect=0;" vertex="1" parent="1">
          <mxGeometry x="-341" y="-597" width="66" height="74" as="geometry" />
        </mxCell>
        <mxCell id="VFk-ePLD4UC4l5shMS_P-2" value="" style="sketch=0;outlineConnect=0;fontColor=#232F3E;gradientColor=none;fillColor=#FF8000;strokeColor=none;dashed=0;verticalLabelPosition=bottom;verticalAlign=top;align=center;html=1;fontSize=12;fontStyle=0;aspect=fixed;pointerEvents=1;shape=mxgraph.aws4.gateway;" vertex="1" parent="1">
          <mxGeometry x="-344" y="-923" width="76" height="78" as="geometry" />
        </mxCell>
        <mxCell id="VFk-ePLD4UC4l5shMS_P-3" value="" style="sketch=0;aspect=fixed;pointerEvents=1;shadow=0;dashed=0;html=1;strokeColor=none;labelPosition=center;verticalLabelPosition=bottom;verticalAlign=top;align=center;fillColor=#FF8000;shape=mxgraph.mscae.enterprise.gateway" vertex="1" parent="1">
          <mxGeometry x="-329" y="-791" width="50" height="50" as="geometry" />
        </mxCell>
      </root>
    </mxGraphModel>
  </diagram>
</mxfile>
